<?xml version="1.0" encoding="UTF-8"?>
<svg width="25px" height="25px" viewBox="0 0 25 25" version="1.1" xmlns="http://www.w3.org/2000/svg" xmlns:xlink="http://www.w3.org/1999/xlink">
    <!-- Generator: Sketch 43.2 (39069) - http://www.bohemiancoding.com/sketch -->
    <title>Group</title>
    <desc>Created with Sketch.</desc>
    <defs></defs>
    <g id="Page-1" stroke="none" stroke-width="1" fill="none" fill-rule="evenodd">
        <g id="Group" fill-rule="nonzero">
            <path d="M12.4947452,24.9724522 C19.363535,24.9724522 24.9278662,19.408121 24.9278662,12.5393312 C24.9278662,5.6705414 19.363535,0.106210191 12.4947452,0.106210191 C5.62595541,0.106210191 0.0616242038,5.6705414 0.0616242038,12.5393312 C0.0657643312,19.4041401 5.62993631,24.9684713 12.4947452,24.9724522 Z" id="Shape" fill="#FF7171"></path>
            <path d="M20.1829618,7.17882166 C20.1829618,7.17882166 18.5808917,6.47770701 17.8390127,7.30111465 C17.1012739,8.12038217 10.489172,15.8616242 10.489172,15.8616242 C10.489172,15.8616242 7.97802548,13.1507962 7.15461783,12.4130573 C6.33121019,11.6753185 4.81066879,12.5353503 4.81066879,12.5353503 L10.505414,18.6092357 L20.1829618,7.17898089 L20.1829618,7.17882166 Z" id="Shape" fill="#FFFFFF"></path>
        </g>
    </g>
</svg>