<?xml version="1.0" encoding="utf-8"?>
<!-- Generator: Adobe Illustrator 20.1.0, SVG Export Plug-In . SVG Version: 6.00 Build 0)  -->
<svg version="1.1" id="Capa_1" xmlns="http://www.w3.org/2000/svg" xmlns:xlink="http://www.w3.org/1999/xlink" x="0px" y="0px"
	 viewBox="0 0 115 30" style="enable-background:new 0 0 115 30;" xml:space="preserve">
<style type="text/css">
	.st0{fill:#FF5556;}
	.st1{fill:#F4F4F4;}
</style>
<path class="st0" d="M9.7,3.5c-4,1.5-7,4.7-8.2,8.6c0,0,0.1,0,0.1,0c0.7-0.1,1.5,0,2.1,0.4c0.5-1.6,1.5-3.1,2.6-4.3
	c1.1-1.1,2.4-2,3.9-2.6C10,5.3,9.8,4.9,9.8,4.4C9.7,4.1,9.7,3.8,9.7,3.5L9.7,3.5z"/>
<path class="st0" d="M25.8,23.5c1.9-2.8,2.7-6.2,2.1-9.7c0-0.3-0.1-0.6-0.2-0.8c-0.4,0.3-0.9,0.6-1.4,0.7c-0.2,0-0.5,0.1-0.7,0
	c0,0.2,0.1,0.3,0.1,0.5c0.5,2.9-0.1,5.7-1.7,8C24.8,22.3,25.4,22.8,25.8,23.5L25.8,23.5z"/>
<path class="st0" d="M21.9,27.3c-1.5,0.9-3.2,1.6-5,1.9c-1.8,0.3-3.6,0.3-5.2-0.1c0.5-0.6,0.8-1.3,0.7-2.1c1.3,0.3,2.7,0.3,4.1,0
	c1.5-0.3,2.8-0.8,4.1-1.5C20.7,26.3,21.2,26.9,21.9,27.3L21.9,27.3z"/>
<path class="st0" d="M25.4,8C23,4.9,19.2,2.9,15.1,2.7c0.1,0.2,0.2,0.5,0.2,0.7c0.1,0.5,0,1-0.1,1.4c3.3,0.2,6.3,1.8,8.3,4.3
	C23.9,8.6,24.6,8.2,25.4,8C25.3,8,25.4,8,25.4,8L25.4,8z"/>
<path class="st0" d="M1,17.4c0,0.3,0.1,0.6,0.1,1C1.8,22,3.9,25,6.7,26.9c0.1-0.8,0.5-1.5,1.1-1.9c-2.3-1.6-3.9-4.1-4.4-7
	c0-0.2-0.1-0.4-0.1-0.5c-0.2,0.1-0.4,0.1-0.6,0.2C2.1,17.7,1.5,17.6,1,17.4L1,17.4z"/>
<title>Group 4</title>
<desc>Created with Sketch.</desc>
<path id="Oval-Copy" class="st0" d="M7.6,27.9c1.6,0,2.8-1.3,2.8-2.8s-1.3-2.8-2.8-2.8s-2.8,1.3-2.8,2.8S6.1,27.9,7.6,27.9z
	 M7.6,25.7c-0.4,0-0.6-0.3-0.6-0.6s0.3-0.6,0.6-0.6c0.4,0,0.6,0.3,0.6,0.6S8,25.7,7.6,25.7z"/>
<path id="Oval-Copy-2" class="st0" d="M2.8,14.4c1.6,0,2.8-1.3,2.8-2.8S4.4,8.8,2.8,8.8S0,10,0,11.6S1.3,14.4,2.8,14.4z M2.8,12.2
	c-0.4,0-0.6-0.3-0.6-0.6s0.3-0.6,0.6-0.6s0.6,0.3,0.6,0.6S3.2,12.2,2.8,12.2z"/>
<path id="Oval-Copy-3" class="st0" d="M14.8,5.6c1.6,0,2.8-1.3,2.8-2.8S16.4,0,14.8,0S12,1.3,12,2.8S13.3,5.6,14.8,5.6z M14.8,3.4
	c-0.4,0-0.6-0.3-0.6-0.6s0.3-0.6,0.6-0.6c0.4,0,0.6,0.3,0.6,0.6S15.2,3.4,14.8,3.4z"/>
<polygon id="Line" class="st0" points="37.1,29.4 37.1,3.7 34.9,3.7 34.9,29.4 "/>
<path id="THINK" class="st1" d="M44.5,4v2.1h3v8.4h2.1V6.1h2.9V4H44.5z M60.8,8.1h-3.9V4h-2.1v10.5h2.1v-4.4h3.9v4.4H63V4h-2.1V8.1z
	 M65.4,14.5V4h2.1v10.5H65.4z M78.1,14.5l-6-6.1v6.1H70V4h0.7l5.9,5.9V4h2.1v10.5H78.1z M86.8,14.5h2.5l-3.8-6.4L89.2,4h-2.9
	l-3.1,3.4V4h-2.1v10.5h2.1v-4L84,9.7L86.8,14.5z"/>
<path id="DESIGN" class="st1" d="M44.8,19v10.5h0.9v0h2.1c0.7,0,1.4-0.1,2.1-0.4c0.6-0.3,1.2-0.6,1.7-1.1c0.5-0.5,0.9-1,1.1-1.7
	c0.3-0.6,0.4-1.3,0.4-2.1c0-0.7-0.1-1.4-0.4-2c-0.3-0.6-0.6-1.2-1.1-1.7c-0.5-0.5-1-0.9-1.7-1.1c-0.7-0.3-1.4-0.4-2.1-0.4H44.8z
	 M47,27.4v-6.3h0.9c1.8,0,3.2,1.4,3.2,3.1s-1.4,3.2-3.2,3.2H47z M62.4,19h-7.1v2.1h7.1V19z M55.3,25.2h5.9v-2.1h-5.9V25.2z
	 M55.3,29.5h7.1v-2.1h-7.1V29.5z M68.3,25.1L68.3,25.1c1.2,0.4,1.8,0.9,1.8,1.5c0,0.3-0.3,1.1-1.2,1.1c-0.5,0-1.7,0-2.9-1.2
	l-1.6,1.4c0.7,0.8,1.6,1.3,2.5,1.6c0.8,0.2,1.4,0.3,1.9,0.3c1,0,1.8-0.4,2.4-1.1c0.5-0.6,0.9-1.3,0.9-2.1c0-0.7-0.3-1.5-0.8-2.1
	c-0.5-0.6-1.3-1-2.4-1.4c-0.1,0-0.2-0.1-0.3-0.1c-1-0.2-1.4-0.5-1.4-1.1c0-0.3,0.1-0.5,0.2-0.6c0.3-0.3,0.8-0.4,0.9-0.4
	c0.9,0,1.4,0.3,2.1,0.7l0.4,0.2l1.1-1.8l-0.3-0.2c-0.8-0.5-1.6-1-3.2-1c-0.5,0-1.7,0.2-2.5,1c-0.5,0.6-0.8,1.3-0.8,2.1
	c0,1,0.5,1.8,1.4,2.4C67.2,24.8,67.9,25,68.3,25.1L68.3,25.1z M74.4,29.5V19h2.1v10.5H74.4z M85,23.1v2.1h2.4
	c-0.4,1.4-1.7,2.5-3.3,2.5c-0.9,0-1.7-0.4-2.4-1c-0.6-0.6-1-1.5-1-2.4c0-0.9,0.4-1.7,1-2.3c0.6-0.6,1.5-1,2.4-1h0
	c0.7,0,1.3,0.2,1.9,0.6l1.5-1.5c-0.9-0.7-2.1-1.2-3.4-1.2h0c-3,0-5.5,2.4-5.5,5.4c0,3,2.4,5.4,5.5,5.5h0c2.9,0,5.3-2.3,5.3-5.6v-1.1
	H85z M100,29.5l-6-6.1v6.1h-2.1V19h0.7l5.9,5.9V19h2.1v10.5H100z"/>
<path id="ON" class="st1" d="M98.3,3.7c-3,0-5.5,2.4-5.5,5.4s2.5,5.4,5.5,5.4c3,0,5.5-2.4,5.5-5.4S101.3,3.7,98.3,3.7z M98.3,5.9
	c1.8,0,3.3,1.5,3.3,3.3s-1.5,3.3-3.3,3.3c-1.8,0-3.3-1.5-3.3-3.3S96.4,5.9,98.3,5.9z M114.2,14.4l-6-6.1v6.1h-2.1V3.9h0.7l5.9,5.9
	V3.9h2.1v10.5H114.2z"/>
<path id="Oval-Copy-4" class="st0" d="M26.8,15.4c1.6,0,2.8-1.3,2.8-2.8s-1.3-2.8-2.8-2.8S24,11,24,12.6S25.2,15.4,26.8,15.4z
	 M26.8,13.2c-0.4,0-0.6-0.3-0.6-0.6s0.3-0.6,0.6-0.6s0.6,0.3,0.6,0.6S27.2,13.2,26.8,13.2z"/>
<path id="Oval-Copy-5" class="st0" d="M21.7,28.9c1.6,0,2.8-1.3,2.8-2.8s-1.3-2.8-2.8-2.8s-2.8,1.3-2.8,2.8S20.1,28.9,21.7,28.9z
	 M21.7,26.7c-0.4,0-0.6-0.3-0.6-0.6s0.3-0.6,0.6-0.6s0.6,0.3,0.6,0.6S22,26.7,21.7,26.7z"/>
</svg>
